<?xml version="1.0" encoding="UTF-8" standalone="no"?>
<!-- Created with Inkscape (http://www.inkscape.org/) -->

<svg
   xmlns:dc="http://purl.org/dc/elements/1.1/"
   xmlns:cc="http://creativecommons.org/ns#"
   xmlns:rdf="http://www.w3.org/1999/02/22-rdf-syntax-ns#"
   xmlns:svg="http://www.w3.org/2000/svg"
   xmlns="http://www.w3.org/2000/svg"
   xmlns:sodipodi="http://sodipodi.sourceforge.net/DTD/sodipodi-0.dtd"
   xmlns:inkscape="http://www.inkscape.org/namespaces/inkscape"
   width="744.09448819"
   height="1052.3622047"
   id="svg2"
   version="1.1"
   inkscape:version="0.48.4 r9939"
   sodipodi:docname="whack-a-mole.svg">
  <defs
     id="defs4" />
  <sodipodi:namedview
     id="base"
     pagecolor="#ffffff"
     bordercolor="#666666"
     borderopacity="1.0"
     inkscape:pageopacity="0.0"
     inkscape:pageshadow="2"
     inkscape:zoom="1"
     inkscape:cx="58.975324"
     inkscape:cy="903.20283"
     inkscape:document-units="px"
     inkscape:current-layer="layer1"
     showgrid="false"
     inkscape:window-width="1920"
     inkscape:window-height="1017"
     inkscape:window-x="-8"
     inkscape:window-y="-8"
     inkscape:window-maximized="1" />
  <metadata
     id="metadata7">
    <rdf:RDF>
      <cc:Work
         rdf:about="">
        <dc:format>image/svg+xml</dc:format>
        <dc:type
           rdf:resource="http://purl.org/dc/dcmitype/StillImage" />
        <dc:title></dc:title>
      </cc:Work>
    </rdf:RDF>
  </metadata>
  <g
     inkscape:label="Layer 1"
     inkscape:groupmode="layer"
     id="layer1">
    <g
       id="g4001"
       transform="matrix(4.6459259,0,0,4.6459259,-44.07246,-548.80827)"
       inkscape:export-filename="C:\LAVORI\PROVE\t02\assets\images\mole.png"
       inkscape:export-xdpi="45"
       inkscape:export-ydpi="45">
      <rect
         y="140.93999"
         x="35.127556"
         height="43.04847"
         width="43.04847"
         id="rect3858"
         style="fill:#803300;stroke:none" />
      <g
         transform="translate(0,-0.17219393)"
         id="g3860">
        <path
           inkscape:connector-curvature="0"
           id="path3854"
           d="m 67.5045,144.99617 c 1.28877,0.0233 2.49839,0.44061 3.46875,1.28125 1.822674,1.57901 2.290219,4.2317 1.4375,6.78125 -2.76388,-2.6607 -6.50978,-4.59495 -10.78125,-5.4375 1.68943,-1.74709 3.87047,-2.6613 5.875,-2.625 z"
           style="fill:#c8ab37;stroke:#000000;stroke-width:0.83899999;stroke-miterlimit:4;stroke-opacity:1;stroke-dasharray:none" />
        <path
           style="fill:#c8ab37;stroke:#000000;stroke-width:0.83899999;stroke-miterlimit:4;stroke-opacity:1;stroke-dasharray:none"
           d="m 45.815051,144.99617 c -1.28877,0.0233 -2.49839,0.44061 -3.46875,1.28125 -1.822674,1.57901 -2.290219,4.2317 -1.4375,6.78125 2.76388,-2.6607 6.50978,-4.59495 10.78125,-5.4375 -1.68943,-1.74709 -3.87047,-2.6613 -5.875,-2.625 z"
           id="path3842"
           inkscape:connector-curvature="0" />
        <path
           sodipodi:type="arc"
           style="fill:#c8ab37;stroke:none"
           id="path3007"
           sodipodi:cx="60.095665"
           sodipodi:cy="169.69637"
           sodipodi:rx="20.491072"
           sodipodi:ry="19.630102"
           d="m 80.586737,169.69637 c 0,10.8414 -9.174166,19.6301 -20.491072,19.6301 -11.316906,0 -20.491072,-8.7887 -20.491072,-19.6301 0,-10.84141 9.174166,-19.63011 20.491072,-19.63011 11.316906,0 20.491072,8.7887 20.491072,19.63011 z"
           transform="matrix(1,0,0,0.85964912,-3.4438776,18.30683)" />
        <path
           sodipodi:type="arc"
           style="fill:#ffeeaa;stroke:none"
           id="path3005"
           sodipodi:cx="46.492348"
           sodipodi:cy="165.39153"
           sodipodi:rx="8.6096935"
           sodipodi:ry="9.4706631"
           d="m 55.102041,165.39153 c 0,5.2305 -3.854691,9.47066 -8.609693,9.47066 -4.755003,0 -8.609694,-4.24016 -8.609694,-9.47066 0,-5.23051 3.854691,-9.47067 8.609694,-9.47067 4.755002,0 8.609693,4.24016 8.609693,9.47067 z"
           transform="matrix(1,0,0,1.2909091,10.15944,-47.080736)" />
        <g
           id="g3816"
           transform="translate(0.47066555,0)">
          <path
             d="m 48.903061,154.5433 c 0,0.951 -0.770939,1.72194 -1.721939,1.72194 -0.951001,0 -1.721939,-0.77094 -1.721939,-1.72194 0,-0.951 0.770938,-1.72193 1.721939,-1.72193 0.951,0 1.721939,0.77093 1.721939,1.72193 z"
             sodipodi:ry="1.7219387"
             sodipodi:rx="1.7219387"
             sodipodi:cy="154.5433"
             sodipodi:cx="47.181122"
             id="path2999"
             style="fill:#000000;stroke:none"
             sodipodi:type="arc" />
          <path
             transform="translate(18,0)"
             sodipodi:type="arc"
             style="fill:#000000;stroke:none"
             id="path3001"
             sodipodi:cx="47.181122"
             sodipodi:cy="154.5433"
             sodipodi:rx="1.7219387"
             sodipodi:ry="1.7219387"
             d="m 48.903061,154.5433 c 0,0.951 -0.770939,1.72194 -1.721939,1.72194 -0.951001,0 -1.721939,-0.77094 -1.721939,-1.72194 0,-0.951 0.770938,-1.72193 1.721939,-1.72193 0.951,0 1.721939,0.77093 1.721939,1.72193 z" />
        </g>
        <path
           sodipodi:type="arc"
           style="fill:#d38d5f;stroke:none"
           id="path3003"
           sodipodi:cx="58.890305"
           sodipodi:cy="162.80861"
           sodipodi:rx="4.1326532"
           sodipodi:ry="2.0663266"
           d="m 63.022958,162.80861 c 0,1.1412 -1.850252,2.06633 -4.132653,2.06633 -2.282402,0 -4.132654,-0.92513 -4.132654,-2.06633 0,-1.1412 1.850252,-2.06633 4.132654,-2.06633 2.282401,0 4.132653,0.92513 4.132653,2.06633 z"
           transform="translate(-2.2385172,-4.8214286)" />
        <g
           id="g3820"
           transform="translate(0.26792788,0)">
          <path
             inkscape:connector-curvature="0"
             id="rect3019"
             d="m 56.137715,160.59375 c -0.03552,0.72151 -0.103644,1.43097 -0.25,2.125 -0.688539,3.26509 -2.482528,5.64223 -4.625,6.59375 l 0,7.34375 5.0625,0 0,-16.0625 -0.1875,0 z"
             style="fill:#ffffff;stroke:#e6e6e6;stroke-width:0.41943055;stroke-miterlimit:4;stroke-dasharray:none" />
          <path
             sodipodi:type="arc"
             style="fill:none;stroke:#000000"
             id="path3810"
             sodipodi:cx="44.253826"
             sodipodi:cy="208.61218"
             sodipodi:rx="9.8150511"
             sodipodi:ry="9.9872446"
             d="m 51.644876,215.18363 c -3.566734,4.15357 -9.767229,4.57858 -13.849193,0.94927 -2.061327,-1.83274 -3.276831,-4.45815 -3.353098,-7.24246"
             sodipodi:start="0.718138"
             sodipodi:end="3.1137276"
             transform="matrix(-0.71289404,0,0,0.98812568,80.518122,-46.226221)"
             sodipodi:open="true" />
          <path
             inkscape:connector-curvature="0"
             style="fill:#ffffff;stroke:#e6e6e6;stroke-width:0.41943055;stroke-miterlimit:4;stroke-dasharray:none"
             d="m 56.630215,160.59375 c 0.03552,0.72151 0.103644,1.43097 0.25,2.125 0.688539,3.26509 2.482528,5.64223 4.625,6.59375 l 0,7.34375 -5.0625,0 0,-16.0625 0.1875,0 z"
             id="path3812" />
          <path
             sodipodi:open="true"
             transform="matrix(0.71289404,0,0,0.98812568,32.249597,-46.226221)"
             sodipodi:end="3.1137276"
             sodipodi:start="0.718138"
             d="m 51.644876,215.18363 c -3.566734,4.15357 -9.767229,4.57858 -13.849193,0.94927 -2.061327,-1.83274 -3.276831,-4.45815 -3.353098,-7.24246"
             sodipodi:ry="9.9872446"
             sodipodi:rx="9.8150511"
             sodipodi:cy="208.61218"
             sodipodi:cx="44.253826"
             id="path3814"
             style="fill:none;stroke:#000000"
             sodipodi:type="arc" />
        </g>
      </g>
    </g>
    <g
       id="g3029">
      <rect
         inkscape:export-ydpi="45"
         inkscape:export-xdpi="45"
         inkscape:export-filename="C:\LAVORI\PROVE\t02\assets\images\mole_clicked2.png"
         style="fill:none;stroke:none"
         id="rect3922"
         width="200"
         height="200"
         x="372.09695"
         y="105.98846" />
      <path
         inkscape:export-ydpi="45"
         inkscape:export-xdpi="45"
         inkscape:export-filename="C:\LAVORI\PROVE\t02\assets\images\mole_clicked2.png"
         sodipodi:nodetypes="csccc"
         inkscape:connector-curvature="0"
         id="path3896"
         d="m 544.91784,129.63322 c 8.38752,2.50825 20.40732,9.24702 19.31553,18.75259 -1.27842,11.13052 -14.95979,1.26016 -18.92146,13.10518 -12.84078,-12.36142 -30.24396,-21.3478 -50.08889,-25.26222 10.15646,-6.83491 39.48456,-10.22541 49.69482,-6.59555 z"
         style="fill:#c8ab37;stroke:#000000;stroke-width:3.89793181;stroke-miterlimit:4;stroke-opacity:1;stroke-dasharray:none" />
      <path
         inkscape:export-ydpi="45"
         inkscape:export-xdpi="45"
         inkscape:export-filename="C:\LAVORI\PROVE\t02\assets\images\mole_clicked2.png"
         sodipodi:nodetypes="csccc"
         style="fill:#c8ab37;stroke:#000000;stroke-width:3.89793181;stroke-miterlimit:4;stroke-opacity:1;stroke-dasharray:none"
         d="m 419.35025,113.63321 c -5.98753,0.10825 -23.60733,1.24706 -28.11555,5.15261 -8.46801,7.33597 3.75981,30.86015 7.72148,42.70517 12.84078,-12.36142 30.24395,-21.3478 50.08889,-25.26222 -7.84897,-8.11686 -20.38192,-22.76421 -29.69482,-22.59556 z"
         id="path3898"
         inkscape:connector-curvature="0" />
      <path
         inkscape:export-ydpi="45"
         inkscape:export-xdpi="45"
         inkscape:export-filename="C:\LAVORI\PROVE\t02\assets\images\mole_clicked2.png"
         sodipodi:type="arc"
         style="fill:#c8ab37;stroke:none"
         id="path3900"
         sodipodi:cx="60.095665"
         sodipodi:cy="169.69637"
         sodipodi:rx="20.491072"
         sodipodi:ry="19.630102"
         d="m 80.586737,169.69637 a 20.491072,19.630102 0 1 1 -40.982144,0 20.491072,19.630102 0 1 1 40.982144,0 z"
         transform="matrix(4.6459259,0,0,3.9938661,192.89692,-464.55609)" />
      <path
         inkscape:export-ydpi="45"
         inkscape:export-xdpi="45"
         inkscape:export-filename="C:\LAVORI\PROVE\t02\assets\images\mole_clicked2.png"
         sodipodi:type="arc"
         style="fill:#ffeeaa;stroke:none"
         id="path3902"
         sodipodi:cx="46.492348"
         sodipodi:cy="165.39153"
         sodipodi:rx="8.6096935"
         sodipodi:ry="9.4706631"
         d="m 55.102041,165.39153 a 8.6096935,9.4706631 0 1 1 -17.219387,0 8.6096935,9.4706631 0 1 1 17.219387,0 z"
         transform="matrix(4.6459259,0,0,5.997468,256.09693,-768.34188)" />
      <path
         inkscape:export-ydpi="45"
         inkscape:export-xdpi="45"
         inkscape:export-filename="C:\LAVORI\PROVE\t02\assets\images\mole_clicked2.png"
         transform="matrix(15.02332,0,0,10.258728,-195.49739,-1420.5408)"
         sodipodi:type="arc"
         style="fill:#8c7827;fill-opacity:1;stroke:none"
         id="path3972"
         sodipodi:cx="47.181122"
         sodipodi:cy="154.5433"
         sodipodi:rx="1.7219387"
         sodipodi:ry="1.7219387"
         d="m 48.903061,154.5433 a 1.7219387,1.7219387 0 1 1 -3.443878,0 1.7219387,1.7219387 0 1 1 3.443878,0 z" />
      <path
         inkscape:export-ydpi="45"
         inkscape:export-xdpi="45"
         inkscape:export-filename="C:\LAVORI\PROVE\t02\assets\images\mole_clicked2.png"
         sodipodi:nodetypes="sssss"
         inkscape:connector-curvature="0"
         id="path3908"
         d="m 521.68055,171.7504 c 1.18359,1.62566 -3.35199,4.63807 -7.77027,4.63807 -4.41827,0 -8.51672,-2.87796 -7.28137,-7.71112 0.71863,-2.81162 3.65351,-3.24114 5.53613,-1.51188 5.95705,5.47184 8.00182,2.50597 9.51551,4.58493 z"
         style="fill:#000000;stroke:none" />
      <path
         inkscape:export-ydpi="45"
         inkscape:export-xdpi="45"
         inkscape:export-filename="C:\LAVORI\PROVE\t02\assets\images\mole_clicked2.png"
         sodipodi:type="arc"
         style="fill:#d38d5f;stroke:none"
         id="path3910"
         sodipodi:cx="58.890305"
         sodipodi:cy="162.80861"
         sodipodi:rx="4.1326532"
         sodipodi:ry="2.0663266"
         d="m 63.022958,162.80861 a 4.1326532,2.0663266 0 1 1 -8.265307,0 4.1326532,2.0663266 0 1 1 8.265307,0 z"
         transform="matrix(4.6459259,0,0,4.6459259,198.49694,-572.00827)" />
      <path
         inkscape:export-ydpi="45"
         inkscape:export-xdpi="45"
         inkscape:export-filename="C:\LAVORI\PROVE\t02\assets\images\mole_clicked2.png"
         style="fill:#ffffff;stroke:#e6e6e6;stroke-width:1.94864333;stroke-miterlimit:4;stroke-dasharray:none"
         d="m 470.95335,196.49841 c -0.16493,3.35208 -0.4815,6.64818 -1.16148,9.87259 -3.1989,15.16937 -11.53365,26.21339 -21.48741,30.63408 l 0,34.11852 23.52,0 0,-74.62519 -0.87111,0 z"
         id="path3914"
         inkscape:connector-curvature="0" />
      <path
         inkscape:export-ydpi="45"
         inkscape:export-xdpi="45"
         inkscape:export-filename="C:\LAVORI\PROVE\t02\assets\images\mole_clicked2.png"
         sodipodi:open="true"
         transform="matrix(-3.3120529,0,0,4.5907587,584.22293,-764.37187)"
         sodipodi:end="3.1137276"
         sodipodi:start="1.7379964"
         d="m 42.620384,218.46015 a 9.8150511,9.9872446 0 0 1 -8.177799,-9.56971"
         sodipodi:ry="9.9872446"
         sodipodi:rx="9.8150511"
         sodipodi:cy="208.61218"
         sodipodi:cx="44.253826"
         id="path3916"
         style="fill:none;stroke:#000000"
         sodipodi:type="arc" />
      <path
         inkscape:export-ydpi="45"
         inkscape:export-xdpi="45"
         inkscape:export-filename="C:\LAVORI\PROVE\t02\assets\images\mole_clicked2.png"
         sodipodi:nodetypes="cccccccc"
         id="path3918"
         d="m 473.19301,196.44605 c 0.16586,2.98826 0.48369,5.92662 1.16664,8.80106 3.21313,13.52289 10.55327,26.46342 20.55135,30.40428 l -3.07045,23.21806 -10.03933,-4.54729 -9.48322,8.64946 0,-66.52557 z"
         style="fill:#ffffff;stroke:#e6e6e6;stroke-width:1.84394658;stroke-miterlimit:4;stroke-dasharray:none"
         inkscape:connector-curvature="0" />
      <path
         inkscape:export-ydpi="45"
         inkscape:export-xdpi="45"
         inkscape:export-filename="C:\LAVORI\PROVE\t02\assets\images\mole_clicked2.png"
         sodipodi:type="arc"
         style="fill:none;stroke:#000000"
         id="path3920"
         sodipodi:cx="44.253826"
         sodipodi:cy="208.61218"
         sodipodi:rx="9.8150511"
         sodipodi:ry="9.9872446"
         d="m 42.414458,218.42248 a 9.8150511,9.9872446 0 0 1 -7.971873,-9.53204"
         sodipodi:start="1.7593138"
         sodipodi:end="3.1137276"
         transform="matrix(3.3120529,0,0,4.5907587,359.97093,-764.37187)"
         sodipodi:open="true" />
      <g
         inkscape:export-ydpi="45"
         inkscape:export-xdpi="45"
         inkscape:export-filename="C:\LAVORI\PROVE\t02\assets\images\mole_clicked2.png"
         transform="matrix(4.6459259,0,0,4.6459259,-27.90308,-548.80827)"
         id="g3997">
        <path
           d="m 48.903061,154.5433 c 0,0.951 -0.770939,1.72194 -1.721939,1.72194 -0.951001,0 -1.721939,-0.77094 -1.721939,-1.72194 0,-0.951 0.770938,-1.72193 1.721939,-1.72193 0.951,0 1.721939,0.77093 1.721939,1.72193 z"
           sodipodi:ry="1.7219387"
           sodipodi:rx="1.7219387"
           sodipodi:cy="154.5433"
           sodipodi:cx="47.181122"
           id="path3906"
           style="fill:#000000;stroke:none"
           sodipodi:type="arc"
           transform="matrix(0.37969656,0.4396885,-1.5651085,1.3515621,322.58371,-75.248751)" />
        <path
           transform="matrix(-0.37969656,0.4396885,1.5651085,1.3515621,-125.34135,-75.248751)"
           sodipodi:type="arc"
           style="fill:#000000;stroke:none"
           id="path3995"
           sodipodi:cx="47.181122"
           sodipodi:cy="154.5433"
           sodipodi:rx="1.7219387"
           sodipodi:ry="1.7219387"
           d="m 48.903061,154.5433 c 0,0.951 -0.770939,1.72194 -1.721939,1.72194 -0.951001,0 -1.721939,-0.77094 -1.721939,-1.72194 0,-0.951 0.770938,-1.72193 1.721939,-1.72193 0.951,0 1.721939,0.77093 1.721939,1.72193 z" />
      </g>
    </g>
  </g>
</svg>
